# xmcd
#
# Track frame offsets:
#	150
#	20422
#	45237
#	63051
#
# Disc length: 1136 seconds
#
# Revision: 0
# Processed by: cddbd v1.5.1PL0 Copyright (c) Steve Scherf et al.
# Submitted via: dBpowerAMP V4.0
#
DISCID=22046e04
DTITLE=Walter Trout - A Dedication To All Americans
DYEAR=2001
DGENRE=Blues
TTITLE0=Go The Distance ( 9/11 Version, Radio edit)
TTITLE1=Promised Land
TTITLE2=Bugle Billy
TTITLE3=Go The Distance ( 9/11 Version)
EXTD=
EXTT0=
EXTT1=
EXTT2=
EXTT3=
PLAYORDER=
